<?xml version="1.0" encoding="utf-8"?>
<!-- Generator: Adobe Illustrator 24.1.0, SVG Export Plug-In . SVG Version: 6.00 Build 0)  -->
<svg version="1.1" xmlns="http://www.w3.org/2000/svg" xmlns:xlink="http://www.w3.org/1999/xlink" x="0px" y="0px"
	 viewBox="0 0 1045.48 290.36" style="enable-background:new 0 0 1045.48 290.36;" xml:space="preserve">
<style type="text/css">
	.st0{fill:#00FFD0;}
	.st1{fill:#333333;}
	.st2{display:none;fill:#333333;}
	.st3{font-family:'Cadiz-Regular';}
	.st4{font-size:84px;}
</style>
<g id="Logo">
	<g>
		<path class="st0" d="M418.9,205.39c0.38,3.18-2.07,5.75-2.07,5.75l-2.75-0.86c0,0-20.3-7.15-51.52-16.32
			c0,0-27.62-8.2-38.85-11.89c0,0-2.41-0.92-7.12-0.46c-4.72,0.46-21.02,1.7-31.76,2.82l-16.41,1.85
			c-29.63,3.4-43.17,3.99-43.17,3.99c-47.02,4.54-58.28,5.39-58.28,5.39c-24.83,1.81-40.64,4.78-77.78,7.19l-69.91,7
			c0,0-4.98,0.54-5.02,0.51l-1.86,0.17c-1.54-1.02-1.73-2.22-1.73-2.22l0.07-2.6c2.95-1.07-0.37-4.25-0.37-4.25
			c-1.51-0.65-1.02-1.76-1.02-1.76c0.02-0.21,0.14-0.34,0.22-0.49c0.15-0.28,0.47-0.7,0.45-0.78c-0.33-0.84,1.22-3.84,1.22-3.84
			c-0.78-0.99-0.47-0.81-1.26-1.79c-0.5-0.63-0.74-2.51-0.86-3.85c-0.08-0.93,1.57-2.76,1.14-3.26c-0.71-0.83-1.44-1.56-2.14-2.44
			c-0.23-0.29-0.48-0.89-0.57-1.35c-0.06-0.33,0.09-0.76,0.23-0.96c0.5-0.71,0.52-0.74-0.11-1.87c-0.24-0.43-0.51-0.78-0.76-1.18
			c-0.55-0.89,1.24-2.87,1.07-4.15c-0.08-0.59-0.24-1.23-0.43-1.82c-0.12-0.38-0.25-0.92-0.37-1.48c-0.05-0.11-0.09-0.23-0.13-0.35
			c-0.12-0.34-0.12-0.61-0.07-0.85c-0.07-0.54-0.09-1-0.03-1.3c-0.2-0.63-0.39-1.25-0.58-1.88c-0.15-0.49-0.12-0.92,0.07-1.2
			c0.05-0.08,0.1-0.17,0.17-0.21c0.36-0.2,0.23-1.09,0.39-1.57c-0.08-0.09-0.15-0.19-0.23-0.28c-0.25-0.31-0.35-0.53-0.27-0.75
			c0.18-0.51,0.01-1.27,0.05-1.87c0.05-0.73-0.13-1.45-0.38-2.14c-0.12-0.33-0.19-0.67-0.28-1.01c-0.12-0.45-0.09-0.81,0.04-1.03
			c0.2-0.35,0.43-0.63,0.64-0.96c0.15-0.23,0.12-0.83-0.07-1.28c-0.15-0.35-0.31-0.67-0.47-1c-0.25-0.37-0.5-0.73-0.75-1.05
			c-0.59-0.74-0.97-1.59-0.79-2.62c0.12-0.69-0.02-1.06-0.4-1.49c-0.24-0.27-0.49-0.59-0.69-0.98c-0.75-1.49-0.71-1.93,0.15-2.05
			c0.77-0.11,0.91-0.31,0.66-1.91c-0.24-1.52-0.2-2.42,0.59-2.64c0.42-0.11,0.8-0.6,0.64-1.79c-0.17-1.21,0.36-3.4-0.34-3.68
			c-0.89-0.37-0.99-1.9-1.49-2.81c-0.01-0.02,0.07-0.35,0.12-0.33c0.14,0.05,0.29,0.28,0.42,0.33c0.17,0.07,0.33,0.03,0.5,0.03
			c-0.12-0.35-0.22-0.82-0.37-1.03c-0.49-0.65-0.65-1.12-0.64-2.2c0.01-1.27-0.08-2.96-1.2-3.89c-0.17-0.14-0.39-1.01-0.41-1.47
			c-0.02-0.31,0.23-0.58,0.41-0.69c0.2-0.13,0.48,0,0.69-0.09c0.2-0.08,0.36-0.31,0.53-0.47c-0.16-0.39-0.29-0.87-0.49-1.16
			c-0.31-0.46-0.66-0.84-1-1.15c-0.6-0.55-0.91-1.54-0.51-1.98c0.65-0.71,0.13-1.31-0.29-2.06c-0.23-0.41-0.45-0.87-0.61-1.35
			c-0.09-0.26-0.07-0.83-0.03-0.9c0.14-0.26,0.66-1.24,1.85-1.17c0.53,0.03,0.6-0.7,0.58-0.89c-0.15-0.4-1.44-0.06-1.62-0.22
			c-0.45-0.43,0.04-0.58-0.42-0.91c-0.47-0.33-1.23-2.27-1.09-2.89c0.07-0.33,0.39-0.41,0.62-0.47c0.35-0.09,0.84,0.19,0.23-1.17
			c-0.4-0.89-0.22-0.52,0.04-1.6c0.13-0.54,0.41-0.32,0.21-0.94l0.38-0.33c0,0,5.93-0.87,6.77-0.96c1.69-0.18,0.27-2.46,0.27-2.46
			c-0.48-3.08-0.1-4.37-0.14-4.78c-0.21-2.46-1.06-2.83-2.06-3.44c-0.23-0.14-0.53-1.09-0.66-1.69c-0.05-0.21,0.28-0.7,0.49-0.69
			c0.35,0.02,0.48-0.19,0.86,0.01c0.12,0.06,0.22-0.46,0.34-0.38c-0.03-0.26,0.15-0.18,0.07-0.34C7.2,87.49,7,87.85,6.75,87.36
			c-0.21-0.41-0.44-0.94-0.52-1.4c-0.03-0.18,0.29-0.45,0.5-0.5c0.34-0.08,0.52-1.01,0.15-1.99c-0.27-0.72-0.32-0.69-0.5-1.51
			c-0.29-1.35-0.15-2.18,0.37-2.68c0.61-0.59,0.55-1.19-0.21-2.36c-0.06-0.1-0.13-0.21-0.2-0.29c-0.32-0.35-0.66-0.65-0.63-1.45
			c0.03-0.93,0.7-1.59,0.98-1.52c0.22,0.05,0.33-0.46,0.36-0.62c0.16-1.03,0.12-0.71-0.15-1.26c-0.31-0.62-0.99-0.61-1.58-0.68
			c-1.15-0.14-1.01-0.59-1.63-1.4c-0.55-0.72-0.73-0.99-0.27-1.61c0.12-0.16,0.85-0.3,1.06-0.27c0.45,0.06,0.28-0.31,0.33-1.18
			c0.01-0.24,0.09-0.43,0.15-0.63c0.45-1.46,0.44-1.46-0.08-3.69c-0.37-1.59-0.63-3.07-0.02-4.15c0.41-0.72,0.11-3.07,0.65-3.2
			c0.32-0.08,0.34-0.99,0.41-1.47c0.05-0.33,0.11-0.46,0.29-0.48c0.12-0.01,0.25-0.35,0.31-0.56C6.66,52.04,5.96,51.35,5.8,51
			c-0.28-0.61-0.55-1.18-0.87-1.73c-0.43-0.77-0.77-1.39-0.12-1.68c0.44-0.2,0.32-1.14,0.02-1.56c-0.68-0.94-0.82-2.06-1.06-3.2
			c-0.03-0.14-0.08-0.28-0.09-0.41c-0.06-0.71-0.83-1.33-0.49-1.98c0.18-0.34,0.64-0.12,0.91-0.34c0.5-0.41,1.58-1.02,1.02-1.46
			c-0.17-0.14,0.03-0.96-0.1-1.16c-0.38-0.57-0.53-1.02-0.94-1.39c-0.71-0.62-0.39-0.34-0.9-1.51l-0.1-0.62
			c-0.2-0.64,0.59-0.69,0.59-0.69l7.6-0.95c0,0,20.05-2.13,39.01-4.01c0,0,14.5-1.42,75.38-7.6c0,0,25.73-2.24,55.06-6.18
			c0,0,25.65-3.07,78.51-7.34c0,0,36.07-3.7,62.03-6.86c0,0,9.52-1.48,16.15,1.81c0,0,42.33,17.8,57.29,23.48l71.07,30.52
			c1.81,0.97,0.63,1.76,0.63,1.76c-0.12,0.17-0.34,0.25-0.52,0.35c-0.33,0.19-0.97,0.45-0.96,0.52c0.09,0.79,0.12,1.72,0.47,2.29
			c0.65,1.05,0.3,0.81,0.95,1.86c0.42,0.67-0.1,2.31-0.53,3.46c-0.3,0.8-3.4,1.85-3.03,2.39c0.62,0.89,1.3,1.72,1.88,2.65
			c0.19,0.31,0.27,0.88,0.18,1.29c-0.06,0.29-0.46,0.61-0.75,0.74c-1.01,0.45-1.04,0.47-0.68,1.59c0.14,0.43,0.36,0.79,0.53,1.2
			c0.36,0.9-2.99,2.03-3.32,3.15c-0.16,0.52-0.21,1.1-0.22,1.64c0,0.35-0.06,0.84-0.15,1.34c0.02,0.11,0.03,0.22,0.03,0.33
			c0.01,0.31-0.1,0.55-0.28,0.73c-0.14,0.47-0.32,0.86-0.53,1.09c-0.01,0.58-0.02,1.16-0.04,1.74c-0.02,0.45-0.24,0.8-0.63,0.98
			c-0.11,0.05-0.22,0.11-0.33,0.13c-0.6,0.07-0.81,0.84-1.25,1.2c0.06,0.1,0.13,0.2,0.19,0.3c0.21,0.33,0.25,0.54,0.03,0.71
			c-0.51,0.39-0.59,1.13-0.96,1.62c-0.49,0.65-0.33,1.38-0.37,2.09c-0.01,0.22-0.04,0.44-0.07,0.65c-0.04,0.41-0.24,0.7-0.52,0.85
			c-0.43,0.23-0.87,0.4-1.31,0.62c-0.31,0.15-0.53,0.66-0.47,1.09c0.05,0.33,0.12,0.65,0.21,0.97c0.18,0.38,0.36,0.75,0.58,1.09
			c0.49,0.79,0.63,1.61-0.07,2.42c-0.47,0.54-0.45,0.88-0.1,1.36c0.21,0.29,0.42,0.64,0.52,1.02c0.38,1.45,0.12,1.82-1.12,1.67
			c-1.12-0.13-1.4-0.01-1.76,1.41c-0.35,1.33-0.79,2.08-1.99,2.03c-0.63-0.03-1.37,0.27-1.68,1.31c-0.31,1.06-0.12,2.36,0.71,2.8
			c1.07,0.57,0.53,1.87,0.81,2.77c0.01,0.02-0.25,0.28-0.31,0.24c-0.17-0.08-0.27-0.32-0.44-0.4c-0.21-0.1-0.45-0.12-0.68-0.17
			c0.01,0.33-0.07,0.75,0.06,0.97c0.39,0.68,0.4,1.12-0.09,2.02c-0.57,1.06-1.2,2.49-0.07,3.59c0.17,0.17,0.08,0.96-0.08,1.34
			c-0.11,0.26-0.57,0.42-0.88,0.46c-0.33,0.05-0.66-0.14-1-0.12c-0.31,0.01-0.63,0.15-0.95,0.24c0.05,0.37,0.02,0.81,0.16,1.1
			c0.23,0.47,0.53,0.89,0.87,1.25c0.59,0.63,0.58,1.55-0.17,1.8c-1.22,0.41-0.76,1.05-0.52,1.8c0.13,0.41,0.24,0.85,0.25,1.3
			c0,0.25-0.24,0.75-0.36,0.76c-0.97,0.11-1.97,1.18-2.92,0.29c-0.15-0.14-0.44-0.04-0.66-0.05c0.04,0.38-0.04,0.91,0.13,1.1
			c0.44,0.49,1,0.81,1.49,1.22c0.5,0.41,0.7,2.24,0.23,2.72c-0.25,0.25-0.72,0.23-1.07,0.21c-0.53-0.02-1.08-0.4-0.84,0.91
			c0.16,0.86-0.09,1.76-1.08,1.78c-0.81,0.02-0.89,0.9-0.89,1.47c0,1.29-0.46,2.06-1.38,2.59c-0.47,0.27-1.04,0.52-0.13,1.04
			c0.83,0.48,1.19,1.32,1,2.76c-0.16,1.17-0.34,2.65,0.76,3.44c0.25,0.18,0.25,1.06,0.17,1.6c-0.03,0.19-0.69,0.51-0.99,0.43
			c-0.48-0.11-0.89-0.5-1.32-0.78c-0.13-0.09-0.25-0.2-0.38-0.3c-0.08,0.23-0.26,0.52-0.21,0.67c0.14,0.47,0.42,0.87,0.55,1.35
			c0.11,0.41,0.19,0.91,0.09,1.32c-0.04,0.16-0.6,0.29-0.91,0.28c-0.51-0.03-0.8-0.1-0.72,0.83c0.05,0.68-0.23,1.45-0.35,2.19
			c-0.19,1.21-0.77,1.86-1.71,2.13c-1.11,0.32-1.29,0.84-0.76,2.03c0.05,0.1,0.08,0.21,0.15,0.3c0.29,0.38,0.62,0.73,0.22,1.39
			c-0.46,0.77-0.72,0.12-1.08-0.02c-0.28-0.1-0.87-0.04-0.91,0.1c-0.19,0.61-0.42,1.38-0.29,1.91c0.15,0.61,0.64,1.06,1.02,1.53
			c0.6,0.76,1.34,1.38,1.83,2.24c0.44,0.76,0.15,1.17-0.67,1.14c-0.29-0.01-0.58-0.06-0.85-0.14c-0.6-0.18-1.13-0.09-1.59,0.63
			c-0.12,0.19-0.31,0.34-0.48,0.48c-1.28,1.09-1.26,1.09-1.53,3.1c-0.19,1.44-0.48,2.74-1.81,3.47c-0.88,0.48-1.52,2.53-2.32,2.48
			c-0.47-0.03-0.91,0.73-1.23,1.11c-0.22,0.26-0.36,0.35-0.62,0.31c-0.17-0.02-0.37-0.29-0.56-0.14c-0.38,0.31,0.17,1.61,0.23,1.94
			c0.11,0.59,0.24,1.14,0.43,1.7c0.26,0.76,0.45,1.38-0.59,1.43c-0.7,0.04-0.95,0.86-0.72,1.3c0.52,0.98,0.22,1.95,0.05,2.97
			c-0.02,0.12-0.01,0.26-0.06,0.37c-0.23,0.61,0.56,1.35-0.2,1.79c-0.41,0.23-0.95-0.08-1.42,0.02c-0.88,0.2-1.75,0.49-2.61,0.83
			c-0.11,0.04-0.26,0.74-0.17,0.94c0.28,0.58,0.61,1.15,1.03,1.58c0.71,0.72,1.15,1.64,1.34,2.77c0.14,0.85,0.05,1.63-0.64,2.33
			C418.55,203.74,418.9,205.39,418.9,205.39z"/>
		<g>
			<path class="st1" d="M179.26,83.74c-4.87-4.26-11.38-6.6-18.32-6.6c-12.45,0-22.25,5.78-26.16,15.24
				c-4.15-11.18-14.11-15.24-22.41-15.24c-9.22,0-16.82,4.11-20.79,11.09l-2.13-8.94H76.93v85.63h15.34v-52.68
				c0-12.61,6.98-20.76,17.78-20.76c9.3,0,14.63,5.88,14.63,16.12v57.32h15.34v-52.68c0-12.61,6.98-20.76,17.78-20.76
				c9.3,0,14.63,5.88,14.63,16.12v57.32h15.34v-61.13C187.76,95.52,184.82,88.59,179.26,83.74z"/>
			<path class="st1" d="M304.54,83.74c-4.87-4.26-11.38-6.6-18.32-6.6c-12.45,0-22.25,5.78-26.16,15.24
				c-4.15-11.18-14.11-15.24-22.41-15.24c-9.22,0-16.82,4.11-20.79,11.09l-2.13-8.94h-12.52v85.63h15.34v-52.68
				c0-12.61,6.98-20.76,17.78-20.76c9.3,0,14.63,5.88,14.63,16.12v57.32h15.34v-52.68c0-12.61,6.98-20.76,17.78-20.76
				c9.3,0,14.63,5.88,14.63,16.12v57.32h15.34v-61.13C313.04,95.52,310.1,88.59,304.54,83.74z"/>
			<path class="st1" d="M366.57,77.14c-12.37,0-23,4.58-30.74,13.24c-7.31,8.17-11.33,19.41-11.33,31.65
				c0,12.3,4.02,23.56,11.33,31.71c7.72,8.62,18.35,13.17,30.74,13.17c24.38,0,42.07-18.88,42.07-44.89S390.94,77.14,366.57,77.14z
				 M366.74,152.07c-13.2,0-26.56-10.32-26.56-30.04c0-17.31,11.17-29.88,26.56-29.88c15.2,0,26.23,12.57,26.23,29.88
				C392.97,141.75,379.77,152.07,366.74,152.07z"/>
			<polygon class="st1" points="45.56,53.24 45.56,164.92 62.06,164.92 62.06,46.97 			"/>
		</g>
		<g>
			<path class="st1" d="M899.78,149.04c2.41-1.89,4.84-3.76,7.28-5.64c22.46-17.29,45.68-35.18,45.68-61.32
				c0-20.48-14.78-34.78-35.94-34.78c-18.59,0-38.59,12.44-38.59,39.75c0,1.32,0.09,2.78,0.22,3.7l15.15-5.85
				c0-15.02,11.18-22.88,22.22-22.88c10.73,0,21.56,6.82,21.56,22.05c0,19.73-20.14,35.17-48.01,56.55
				c-3.97,3.05-8.11,6.22-12.38,9.55l-0.25,0.19v14.55h79.17v-15.88H899.78z"/>
			<path class="st1" d="M522.43,97.98l-1.37-0.55c-12.47-5.02-21.3-9.44-21.3-20.61c0-11,8.76-16.75,17.41-16.75
				c6.98,0,15.83,3.71,19.28,11.83l14.68-5.7l-0.22-0.55c-5.78-14.36-21.03-20.79-33.57-20.79c-16.43,0-34.12,10.37-34.12,33.12
				c0,22.22,17.02,29.15,30.7,34.71l1.68,0.68c13.97,5.76,23.13,10.39,23.13,21.77c0,11.8-9.91,17.08-19.73,17.08
				c-9.71,0-21.3-5.18-24.72-19.72l-0.15-0.64l-15.57,5.91c4.69,18.16,20.18,29.83,39.78,29.83c9.86,0,19.03-3.01,25.84-8.47
				c7.69-6.17,11.76-14.98,11.76-25.48C555.93,111.34,538.14,104.24,522.43,97.98z"/>
			<path class="st1" d="M687.26,77.5c-24.28,0-41.91,18.81-41.91,44.72c0,25.91,17.62,44.72,41.91,44.72
				c24.28,0,41.91-18.81,41.91-44.72C729.17,96.31,711.55,77.5,687.26,77.5z M713.79,122.23c0,19.81-13.26,30.17-26.36,30.17
				c-13.26,0-26.69-10.36-26.69-30.17c0-17.39,11.23-30.01,26.69-30.01C702.71,92.22,713.79,104.84,713.79,122.23z"/>
			<path class="st1" d="M793.4,128.69c0,15.72-11.53,24.21-22.38,24.21c-8.26,0-17.08-4.92-17.08-18.74v-54.5h-15.05v54.5
				c0,24.2,15.7,32.79,29.15,32.79c10.82,0,20.35-5.18,25.29-13.62l2.87,11.63h12.26v-85.3H793.4V128.69z"/>
			<path class="st1" d="M847.65,55.34l-15.05,5.8v18.52h-14.25v13.72h14.25v46.74c0,23.34,13.28,26.83,21.19,26.83
				c3.52,0,7.15-0.55,11.11-1.68l0.47-0.13V150.2l-1,0.64c-2.32,1.49-5.04,2.38-7.27,2.38c-6.01,0-9.46-4.35-9.46-11.95v-47.9h17.73
				V79.66h-17.73V55.34z"/>
			<polygon class="st1" points="1025.6,120.87 1025.6,86.27 1010.22,92.21 1010.22,120.87 975.71,120.87 1017.8,49.13 
				1000.72,49.13 956.2,124.83 956.2,136.42 1010.22,136.42 1010.22,164.92 1025.6,164.92 1025.6,136.42 1045.48,136.42 
				1045.48,120.87 			"/>
			<path class="st1" d="M627.32,139.08c-4.39,8.15-12.6,13.16-21.82,13.16c-12.79,0-25.7-9.33-25.7-30.17
				c0-14.37,7.73-29.84,24.7-29.84c8.46,0,15.99,4.53,19.97,11.91l14.34-5.49l-0.26-0.55c-5.96-12.7-19.01-20.59-34.06-20.59
				c-10.6,0-20.41,3.94-27.63,11.1c-8.15,8.08-12.45,19.7-12.45,33.62c0,30.73,20.95,44.72,40.41,44.72
				c15.13,0,28.54-8.24,35.86-22.05l0.29-0.54l-0.12-0.06L627.32,139.08z"/>
		</g>
	</g>
</g>
<g id="Layer_1">
	<text transform="matrix(1 0 0 1 712.843 289.0128)" class="st2 st3 st4">Gewerbe</text>
	<g>
		<path class="st1" d="M766.69,289.01h-6.3l-1.34-7.39c-4.03,6.38-10.84,8.74-16.97,8.74c-12.1,0-25.03-9.07-25.03-29.99
			c0-21.59,13.69-31.58,26.96-31.58c9.74,0,18.82,5.46,22.18,15.71l-6.97,2.6c-2.27-7.31-8.57-10.84-15.29-10.84
			c-9.32,0-18.98,6.72-18.98,23.86c0,16.46,8.9,22.93,17.89,22.93c9.07,0,16.46-6.55,16.46-16.46h-16.63v-6.89h24.02V289.01z"/>
		<path class="st1" d="M795.83,290.02c-10.25,0-19.91-7.56-19.91-22.34s9.83-22.34,19.66-22.34c9.16,0,17.72,6.8,17.72,20.75v4.62
			h-30.16c0.5,8.23,5.96,12.6,12.77,12.6c4.87,0,9.24-2.1,11.84-6.72l5.46,3.78C809.11,286.66,802.55,290.02,795.83,290.02z
			 M783.15,264.23H806c0-8.4-5.04-12.1-10.67-12.1C789.53,252.14,783.65,256.25,783.15,264.23z"/>
		<path class="st1" d="M834.89,280.61l9.74-34.19h7.39l9.74,34.19l9.58-34.19h7.39l-12.85,42.59h-7.98l-9.58-31.92l-9.58,31.92
			h-7.98l-12.85-42.59h7.39L834.89,280.61z"/>
		<path class="st1" d="M903.27,290.02c-10.25,0-19.91-7.56-19.91-22.34s9.83-22.34,19.66-22.34c9.16,0,17.72,6.8,17.72,20.75v4.62
			h-30.16c0.5,8.23,5.96,12.6,12.77,12.6c4.87,0,9.24-2.1,11.84-6.72l5.46,3.78C916.54,286.66,909.99,290.02,903.27,290.02z
			 M890.59,264.23h22.85c0-8.4-5.04-12.1-10.67-12.1C896.97,252.14,891.09,256.25,890.59,264.23z"/>
		<path class="st1" d="M952.24,253.56c-1.68-0.67-3.44-1.09-4.96-1.09c-5.21,0-9.49,3.95-9.49,12.6v23.94h-6.97v-42.59h5.63
			l1.43,6.05c2.44-4.54,6.3-6.47,10.5-6.47c1.18,0,2.52,0.17,3.86,0.59V253.56z"/>
		<path class="st1" d="M999.7,267.51c0,10.92-6.22,22.51-19.32,22.51c-5.46,0-10.5-2.02-13.44-7.39l-1.51,6.38h-5.63v-60.23h6.97
			v24.36c2.6-5.29,7.64-7.81,13.78-7.81C993.49,245.33,999.7,256.59,999.7,267.51z M992.65,267.76c0-8.06-4.2-15.62-12.85-15.62
			c-8.65,0-12.94,7.56-12.94,15.79c0,7.98,4.03,15.37,12.77,15.37C988.36,283.3,992.65,275.91,992.65,267.76z"/>
		<path class="st1" d="M1026.33,290.02c-10.25,0-19.91-7.56-19.91-22.34s9.83-22.34,19.66-22.34c9.16,0,17.72,6.8,17.72,20.75v4.62
			h-30.16c0.5,8.23,5.96,12.6,12.77,12.6c4.87,0,9.24-2.1,11.84-6.72l5.46,3.78C1039.6,286.66,1033.05,290.02,1026.33,290.02z
			 M1013.65,264.23h22.85c0-8.4-5.04-12.1-10.67-12.1C1020.03,252.14,1014.15,256.25,1013.65,264.23z"/>
	</g>
</g>
</svg>
